<?xml version="1.0" encoding="UTF-8" standalone="no"?>
<svg
   xmlns:dc="http://purl.org/dc/elements/1.1/"
   xmlns:cc="http://creativecommons.org/ns#"
   xmlns:rdf="http://www.w3.org/1999/02/22-rdf-syntax-ns#"
   xmlns:svg="http://www.w3.org/2000/svg"
   xmlns="http://www.w3.org/2000/svg"
   xmlns:sodipodi="http://sodipodi.sourceforge.net/DTD/sodipodi-0.dtd"
   xmlns:inkscape="http://www.inkscape.org/namespaces/inkscape"
   viewBox="0 0 16.000004 16"
   version="1.1"
   id="svg856"
   width="16.000004"
   height="16"
   sodipodi:docname="light_folder.svg"
   inkscape:version="1.0 (4035a4fb49, 2020-05-01)">
  <sodipodi:namedview
     inkscape:document-rotation="0"
     pagecolor="#ffffff"
     bordercolor="#666666"
     borderopacity="1"
     objecttolerance="10"
     gridtolerance="10"
     guidetolerance="10"
     inkscape:pageopacity="0"
     inkscape:pageshadow="2"
     inkscape:window-width="1600"
     inkscape:window-height="837"
     id="namedview886"
     showgrid="false"
     inkscape:zoom="49.066667"
     inkscape:cx="8.5070286"
     inkscape:cy="4.8702387"
     inkscape:window-x="-8"
     inkscape:window-y="61"
     inkscape:window-maximized="1"
     inkscape:current-layer="svg856" />
  <metadata
     id="metadata862">
    <rdf:RDF>
      <cc:Work
         rdf:about="">
        <dc:format>image/svg+xml</dc:format>
        <dc:type
           rdf:resource="http://purl.org/dc/dcmitype/StillImage" />
        <dc:title></dc:title>
      </cc:Work>
    </rdf:RDF>
  </metadata>
  <defs
     id="defs860" />
  <style
     id="style847">.st0{opacity:0}.st0,.st1{fill:#2d2d30}.st2{fill:#c5c5c5}.st3{fill:#2b282e}</style>
  <style
     id="style914">.st0{opacity:0}.st0,.st1{fill:#f6f6f6}.st2{fill:#424242}.st3{fill:#f0eff1}</style>
  <path
     id="rect1449-7"
     style="opacity:0.998;fill:#e2e2e2;fill-opacity:1;stroke-width:2.16262;stop-color:#000000"
     d="M 2,2 C 1,2 1,2 1,3 0,3 0,3 0,4 v 7.5 c 0,1 0,1 1,1 h 10 c 1,0 1.000001,-10e-7 1,-1 V 4 C 12,3 12,3 11,3 H 5 C 5,2 5,2 4,2 Z M 1,4 h 10 v 8 H 1 Z"
     sodipodi:nodetypes="scsssscsscssccccc" />
  <path
     id="rect1449-8-5"
     style="opacity:0.998;fill:#e2e2e2;fill-opacity:1;stroke-width:1.52921;stop-color:#000000"
     d="M 3.666015,6.999999 C 4,6.5 4,6.5 5,6.5 h 10 c 1,0 1,0 0.666016,0.499999 l -3.332031,5.000002 C 12.000001,12.5 12.000001,12.5 11,12.5 H 1 c -1,0 -1,0 -0.666016,-0.499999 z"
     sodipodi:nodetypes="ccccccccc" />
</svg>
