<?xml version="1.0" encoding="UTF-8" standalone="no"?>
<svg
   inkscape:version="1.2.2 (732a01da63, 2022-12-09)"
   sodipodi:docname="lum.svg"
   id="svg26"
   version="1.1"
   viewBox="0 0 4.2333332 4.23334"
   height="16.000025"
   width="16"
   xml:space="preserve"
   xmlns:inkscape="http://www.inkscape.org/namespaces/inkscape"
   xmlns:sodipodi="http://sodipodi.sourceforge.net/DTD/sodipodi-0.dtd"
   xmlns="http://www.w3.org/2000/svg"
   xmlns:svg="http://www.w3.org/2000/svg"
   xmlns:rdf="http://www.w3.org/1999/02/22-rdf-syntax-ns#"
   xmlns:cc="http://creativecommons.org/ns#"
   xmlns:dc="http://purl.org/dc/elements/1.1/"><defs
     id="defs20" /><sodipodi:namedview
     fit-margin-bottom="0"
     fit-margin-right="0"
     fit-margin-left="0"
     fit-margin-top="0"
     inkscape:window-maximized="1"
     inkscape:window-y="-8"
     inkscape:window-x="1592"
     inkscape:window-height="1017"
     inkscape:window-width="1920"
     units="px"
     showgrid="false"
     inkscape:document-rotation="0"
     inkscape:current-layer="layer1"
     inkscape:document-units="px"
     inkscape:cy="4.5"
     inkscape:cx="26.9375"
     inkscape:zoom="16"
     inkscape:pageshadow="2"
     inkscape:pageopacity="0"
     borderopacity="1.0"
     bordercolor="#666666"
     pagecolor="#ffffff"
     id="base"
     inkscape:showpageshadow="2"
     inkscape:pagecheckerboard="0"
     inkscape:deskcolor="#d1d1d1" /><metadata
     id="metadata23"><rdf:RDF><cc:Work
         rdf:about=""><dc:format>image/svg+xml</dc:format><dc:type
           rdf:resource="http://purl.org/dc/dcmitype/StillImage" /></cc:Work></rdf:RDF></metadata><g
     transform="translate(-31.173383,-194.14896)"
     id="layer1"
     inkscape:groupmode="layer"
     inkscape:label="Layer 1"><path
       id="rect12000"
       style="fill:#161616;stroke-width:0.140179;stop-color:#000000;fill-opacity:1"
       d="M 32.893175 194.67813 C 32.893175 195.02094 32.611426 195.32463 32.415684 195.66928 C 32.414693 195.67103 32.413571 195.6727 32.412584 195.67445 A 1.0583333 1.0583333 0 0 0 32.238951 196.14987 C 32.23774 196.15934 32.236774 196.16873 32.23585 196.17829 A 1.0583333 1.0583333 0 0 0 32.2343 196.20051 C 32.234139 196.20275 32.233929 196.20499 32.233783 196.20723 C 32.232532 196.22654 32.231716 196.24595 32.231716 196.26563 A 1.0583333 1.0583333 0 0 0 33.29005 197.32396 A 1.0583333 1.0583333 0 0 0 34.348383 196.26563 A 1.0583333 1.0583333 0 0 0 34.347866 196.23617 C 34.347809 196.23443 34.347416 196.23274 34.347349 196.231 A 1.0583333 1.0583333 0 0 0 34.167515 195.67445 C 33.97167 195.32763 33.686925 195.02268 33.686925 194.67813 L 33.29005 194.67813 L 32.893175 194.67813 z " /><path
       id="rect11466"
       style="fill:#161616;stroke-width:0.22742;stop-color:#000000;fill-opacity:1"
       d="m 32.893173,194.14896 h 0.79375 v 0.52917 l -0.264582,0.52916 h -0.264583 l -0.264585,-0.52916 z"
       sodipodi:nodetypes="ccccccc" /><path
       id="rect12027"
       style="fill:#969696;fill-opacity:1;stroke-width:0.352359;stop-color:#000000"
       d="m 33.157758,194.94421 c 0,0 -0.285244,1.32142 0.132291,1.32142 0.417536,0 0.132292,-1.32143 0.132292,-1.32143 l 0.06615,-0.26607 c 0,0 0.488683,1.85208 -0.198438,1.85208 -0.68712,0 -0.198437,-1.85208 -0.198437,-1.85208 z"
       sodipodi:nodetypes="czcczcc" /><rect
       style="fill:#969696;fill-opacity:1;stroke-width:0.297794;stop-color:#000000"
       id="rect12030"
       width="0.26458332"
       height="0.79374999"
       x="33.157757"
       y="197.58855" /><rect
       style="fill:#969696;fill-opacity:1;stroke-width:0.297794;stop-color:#000000"
       id="rect12030-1"
       width="0.26458332"
       height="0.79374999"
       x="-115.37343"
       y="163.6433"
       transform="rotate(-45)" /><rect
       style="fill:#969696;fill-opacity:1;stroke-width:0.297794;stop-color:#000000"
       id="rect12030-4-2-7"
       width="0.26458332"
       height="0.79374999"
       x="-196.39792"
       y="-35.406715"
       transform="matrix(0,-1,-1,0,0,0)" /><rect
       style="fill:#969696;fill-opacity:1;stroke-width:0.297794;stop-color:#000000"
       id="rect12030-1-4"
       width="0.26458332"
       height="0.79374999"
       x="-162.45267"
       y="116.56406"
       transform="matrix(-0.70710678,-0.70710678,-0.70710678,0.70710678,0,0)" /><rect
       style="fill:#969696;fill-opacity:1;stroke-width:0.297794;stop-color:#000000"
       id="rect12030-8-4"
       width="0.26458332"
       height="0.79374999"
       x="-196.39792"
       y="-31.967123"
       transform="matrix(0,-1,-1,0,0,0)" /><rect
       style="fill:#969696;fill-opacity:1;stroke-width:0.321178;stop-color:#000000"
       id="rect12237"
       width="0.39687499"
       height="0.79374999"
       x="33.091614"
       y="194.14896" /></g></svg>
