<?xml version="1.0" encoding="UTF-8" standalone="no"?>
<svg
   xmlns:dc="http://purl.org/dc/elements/1.1/"
   xmlns:cc="http://creativecommons.org/ns#"
   xmlns:rdf="http://www.w3.org/1999/02/22-rdf-syntax-ns#"
   xmlns:svg="http://www.w3.org/2000/svg"
   xmlns="http://www.w3.org/2000/svg"
   xmlns:xlink="http://www.w3.org/1999/xlink"
   xmlns:sodipodi="http://sodipodi.sourceforge.net/DTD/sodipodi-0.dtd"
   xmlns:inkscape="http://www.inkscape.org/namespaces/inkscape"
   inkscape:version="1.0 (4035a4fb49, 2020-05-01)"
   sodipodi:docname="light_world.svg"
   id="svg26"
   version="1.1"
   viewBox="0 0 4.2333329 4.2333332"
   height="15.999999"
   width="15.999999">
  <defs
     id="defs20">
    <radialGradient
       inkscape:collect="always"
       xlink:href="#linearGradient1675"
       id="radialGradient1677"
       cx="14.403987"
       cy="15.918523"
       fx="14.403987"
       fy="15.918523"
       r="8"
       gradientUnits="userSpaceOnUse"
       gradientTransform="matrix(-0.32406253,0.50423024,-0.24107295,-0.15493459,41.595169,190.25692)" />
    <linearGradient
       inkscape:collect="always"
       id="linearGradient1675">
      <stop
         style="stop-color:#e2e2e2;stop-opacity:1"
         offset="0"
         id="stop1671" />
      <stop
         style="stop-color:#969696;stop-opacity:1"
         offset="1"
         id="stop1673" />
    </linearGradient>
    <linearGradient
       inkscape:collect="always"
       xlink:href="#linearGradient1685"
       id="linearGradient1687"
       x1="12.991217"
       y1="13.352867"
       x2="6.6476655"
       y2="0.39172736"
       gradientUnits="userSpaceOnUse"
       gradientTransform="matrix(0.26458333,0,0,0.26458333,31.656664,194.5429)" />
    <linearGradient
       inkscape:collect="always"
       id="linearGradient1685">
      <stop
         style="stop-color:#161616;stop-opacity:1"
         offset="0"
         id="stop1681" />
      <stop
         style="stop-color:#626262;stop-opacity:1"
         offset="1"
         id="stop1683" />
    </linearGradient>
  </defs>
  <sodipodi:namedview
     fit-margin-bottom="0"
     fit-margin-right="0"
     fit-margin-left="0"
     fit-margin-top="0"
     inkscape:window-maximized="0"
     inkscape:window-y="55"
     inkscape:window-x="1766"
     inkscape:window-height="900"
     inkscape:window-width="1261"
     units="px"
     showgrid="false"
     inkscape:document-rotation="0"
     inkscape:current-layer="layer1"
     inkscape:document-units="px"
     inkscape:cy="9.7832617"
     inkscape:cx="9.7837715"
     inkscape:zoom="35.891494"
     inkscape:pageshadow="2"
     inkscape:pageopacity="0"
     borderopacity="1.0"
     bordercolor="#666666"
     pagecolor="#000000"
     id="base" />
  <metadata
     id="metadata23">
    <rdf:RDF>
      <cc:Work
         rdf:about="">
        <dc:format>image/svg+xml</dc:format>
        <dc:type
           rdf:resource="http://purl.org/dc/dcmitype/StillImage" />
        <dc:title></dc:title>
      </cc:Work>
    </rdf:RDF>
  </metadata>
  <g
     transform="translate(-31.173384,-194.14896)"
     id="layer1"
     inkscape:groupmode="layer"
     inkscape:label="Layer 1">
    <circle
       cy="196.26562"
       cx="33.290051"
       id="path1562-4-9-7"
       style="opacity:0.998;fill:url(#radialGradient1677);fill-opacity:1;stroke-width:1.80809;stop-color:#000000"
       r="2.1166666" />
    <path
       id="rect1679"
       style="opacity:0.998;fill:url(#linearGradient1687);fill-opacity:1;stroke-width:0.264583;stop-color:#000000"
       d="m 32.747964,194.22181 c -0.895172,0.23702 -1.557615,1.04366 -1.573031,2.0097 0.244269,-0.16296 0.160521,0.8171 0.391191,0.85008 0.07456,0.0107 0.529073,-0.9377 0.630452,-0.92811 0.02521,0.002 0.122115,0.12705 0.262329,0.17879 0.04393,0.0162 0.0071,0.17698 0.05813,0.17562 0.06094,-0.002 0.210186,-0.16574 0.26555,-0.14305 -0.04246,-0.0373 -0.07899,-0.07 -0.07131,-0.0698 0.440524,0.0143 0.694172,-0.019 0.836124,-0.31522 0.04956,-0.10343 -0.17769,-0.50462 -0.077,-0.52659 0.113533,-0.0248 0.209128,-0.14048 0.232627,-0.11331 0.02491,0.0288 -0.02302,0.20024 0.08156,0.15879 0.1911,-0.0757 0.100971,-0.50758 0.243913,-0.58446 0.09529,-0.0512 0.420637,-0.13799 0.49003,-0.17831 0.146553,-0.0852 -0.0045,-0.10632 0.05154,-0.15345 -0.06521,-0.0497 -0.133287,-0.0955 -0.204122,-0.13746 -0.08909,-6.3e-4 -0.170827,-0.005 -0.193787,-0.0346 -0.100359,-0.13044 -0.695821,-0.17583 -1.424202,-0.18862 z m 0.03462,2.14303 c 0.158486,0.13933 0.560145,0.46064 0.528133,0.45165 -0.05912,-0.0166 -0.08095,-0.21268 -0.197404,-0.29611 -0.05107,-0.0366 -0.185191,-0.0959 -0.330729,-0.15554 z m 1.343587,-1.21647 c -0.07846,-0.002 -0.209144,0.0904 -0.0863,0.12299 0.09252,0.0246 0.112614,0.0488 0.101286,0.0744 0.02148,-0.0678 0.0394,-0.12258 0.03514,-0.15865 -0.0032,-0.0271 -0.02397,-0.0381 -0.05013,-0.0388 z m 0.01447,0.19896 c -0.02126,0.0433 -0.129716,0.0902 -0.131775,0.14676 0.07528,0.0669 -0.228919,0.24139 -0.266134,0.29145 0.105933,0.0362 0.408491,-0.15057 0.343649,-0.22014 0.01175,-0.0829 0.0346,-0.15595 0.05426,-0.21807 z m -0.331246,1.20612 c -0.411715,0.11022 -0.08378,-0.12423 -0.356051,0.18759 l 0.03876,-0.0238 c 0.01836,-0.0405 0.04579,-0.0696 0.06408,-0.0388 l 0.01395,-0.008 -0.01033,0.014 c 0.0048,0.0114 0.0079,0.0322 0.01033,0.0568 -0.01811,0.006 -0.03141,0.0329 0.0041,0.0548 8e-6,0.002 5.29e-4,0.002 5.29e-4,0.004 0,0.018 -0.154962,0.023 0.0026,0.0532 0.0086,-0.0217 0.01098,-0.0358 0.01395,-0.0506 0.02647,0.0112 0.06509,0.02 0.134359,0.0196 -0.02171,0.12873 0.0011,-0.0954 0.04754,-0.0212 0.05851,0.0467 0.09236,0.0323 0.124023,0.0119 l 0.03307,0.0413 c 0.25947,-0.0701 -0.220292,0.13784 0.223243,0.0289 0.07563,-0.0703 0.128607,-0.0262 0.08733,-0.21342 3.44e-4,-0.012 0.0018,-0.0118 0.0026,-0.0202 -0.0094,0.0102 -0.02393,0.0177 -0.04754,0.0155 z m 0.434082,0.0956 c 0.02695,-0.0292 0.0071,-0.0725 0,0 z m -0.683679,0.0351 c -0.0011,-0.003 -0.0024,-0.004 -0.0036,-0.006 l -0.06408,0.0388 c -0.02808,0.062 -0.03224,0.1318 0.06201,-0.0253 z m -0.569992,-0.12196 -0.137975,0.0599 c 0.422139,0.47289 0.08634,0.2381 0.264583,0.55656 H 32.90661 l 0.0041,0.004 h 0.19899 c 0.003,-6.1e-4 0.0053,-0.002 0.0078,-0.003 0.0077,0.0137 0.01045,0.0224 0.02015,0.0382 0.0748,-0.0914 0.04382,-0.24832 0.0072,-0.40876 -0.08891,-0.1319 -0.109937,-0.13946 -0.11007,-0.11833 -0.0089,-0.028 -0.01384,-0.047 -0.04496,-0.12867 z m -1.150317,0.3731 0.0057,0.11059 c 0.0455,-0.0345 0.08768,-0.0727 0.130225,-0.11059 z m 2.014328,0.0364 c -0.172147,-0.009 -0.540536,0.53537 -0.540536,0.53537 l 0.102836,0.43253 c 0,0 0.189041,-0.28668 0.382923,-0.28887 0.193881,-0.002 0.144371,0.267 0.322977,0.11937 0.178606,-0.14763 0.241846,-0.35656 0.241846,-0.35656 -0.149086,-0.23094 -0.337899,-0.43329 -0.510046,-0.44184 z m 0.822172,0.44339 c 6e-6,-0.003 -0.0073,-9.6e-4 -0.01033,5.3e-4 -0.0022,10e-4 2.91e-4,0.004 5.29e-4,0.006 0.005,-0.003 0.0056,-0.004 0.0098,-0.006 z m -0.0098,0.006 c -0.03127,0.0177 -0.06518,0.0378 -0.05323,0.045 0.01012,0.006 -0.04106,0.14474 0.04651,0.0853 0,0 0.07468,-0.0295 0.0708,-0.0532 -0.0052,-0.0319 -0.06234,-0.0634 -0.06408,-0.077 z m -0.09043,0.15606 c -0.03371,0.009 -0.10989,0.018 -0.09612,0.0744 0.0076,0.031 0.0042,0.0348 -0.02894,0.0413 -0.01749,0.003 -0.01621,0.0121 -0.02894,0.0196 0.0548,-0.0144 -0.08824,0.0435 -0.0863,0.0465 0.01973,0.0309 -0.03667,0.0522 -0.02946,0.0754 l 0.137976,-0.0708 0.165882,-0.11058 -0.05116,0.0227 c -0.02448,-0.0711 0.09626,-0.0446 0.04599,-0.0863 -0.0073,-0.012 -0.0177,-0.0153 -0.02894,-0.0124 z"
       sodipodi:nodetypes="ccssssccssssssccsccsscsccsscccccccccccccscccccccccccccccccccccccccccccccccccccscccccscccscccccccccccccccccc" />
    <path
       d="m 33.290051,194.14896 a 2.1166667,2.1166667 0 0 0 -2.116667,2.11667 2.1166667,2.1166667 0 0 0 2.116667,2.11666 2.1166667,2.1166667 0 0 0 2.116666,-2.11666 2.1166667,2.1166667 0 0 0 -2.116666,-2.11667 z m -0.0098,0.13229 a 1.984375,1.984375 0 0 1 0.0098,0 1.984375,1.984375 0 0 1 1.984375,1.98438 1.984375,1.984375 0 0 1 -1.984375,1.98437 1.984375,1.984375 0 0 1 -1.984375,-1.98437 1.984375,1.984375 0 0 1 1.974556,-1.98438 z"
       style="opacity:0.998;fill:#e6e6e6;fill-opacity:1;stroke-width:0.761376;stop-color:#000000"
       id="path1816-0" />
  </g>
</svg>
