<?xml version="1.0" encoding="UTF-8" standalone="no"?>
<svg
   xmlns:dc="http://purl.org/dc/elements/1.1/"
   xmlns:cc="http://creativecommons.org/ns#"
   xmlns:rdf="http://www.w3.org/1999/02/22-rdf-syntax-ns#"
   xmlns:svg="http://www.w3.org/2000/svg"
   xmlns="http://www.w3.org/2000/svg"
   xmlns:xlink="http://www.w3.org/1999/xlink"
   xmlns:sodipodi="http://sodipodi.sourceforge.net/DTD/sodipodi-0.dtd"
   xmlns:inkscape="http://www.inkscape.org/namespaces/inkscape"
   inkscape:version="1.0 (4035a4fb49, 2020-05-01)"
   sodipodi:docname="FX_logo.svg"
   height="128"
   width="128"
   id="svg856"
   version="1.1"
   viewBox="0 0 128 128"
   inkscape:export-filename="F:\Users\crisu\Documents\vs-codium wipeout icons\FXlogo.png"
   inkscape:export-xdpi="96"
   inkscape:export-ydpi="96">
  <sodipodi:namedview
     inkscape:current-layer="svg856"
     inkscape:window-maximized="1"
     inkscape:window-y="-8"
     inkscape:window-x="1592"
     inkscape:cy="90.034253"
     inkscape:cx="134.34411"
     inkscape:zoom="0.85928184"
     showgrid="false"
     id="namedview841"
     inkscape:window-height="1017"
     inkscape:window-width="1920"
     inkscape:pageshadow="2"
     inkscape:pageopacity="0"
     guidetolerance="10"
     gridtolerance="10"
     objecttolerance="10"
     borderopacity="1"
     bordercolor="#666666"
     pagecolor="#ffffff"
     inkscape:document-rotation="0" />
  <metadata
     id="metadata862">
    <rdf:RDF>
      <cc:Work
         rdf:about="">
        <dc:format>image/svg+xml</dc:format>
        <dc:type
           rdf:resource="http://purl.org/dc/dcmitype/StillImage" />
        <dc:title></dc:title>
      </cc:Work>
    </rdf:RDF>
  </metadata>
  <defs
     id="defs860">
    <linearGradient
       id="linearGradient2379"
       inkscape:collect="always">
      <stop
         id="stop2369"
         offset="0"
         style="stop-color:#aa0618;stop-opacity:1;" />
      <stop
         style="stop-color:#aa0618;stop-opacity:1"
         offset="0.79175365"
         id="stop2371" />
      <stop
         id="stop2373"
         offset="0.87493479"
         style="stop-color:#de081f;stop-opacity:1" />
      <stop
         style="stop-color:#de081f;stop-opacity:1"
         offset="0.91687959"
         id="stop2375" />
      <stop
         id="stop2377"
         offset="1"
         style="stop-color:#aa0618;stop-opacity:1" />
    </linearGradient>
    <linearGradient
       id="linearGradient2359"
       inkscape:collect="always">
      <stop
         id="stop2351"
         offset="0"
         style="stop-color:#007d77;stop-opacity:1;" />
      <stop
         style="stop-color:#007d77;stop-opacity:1"
         offset="0.70580518"
         id="stop2367" />
      <stop
         style="stop-color:#00b2aa;stop-opacity:1"
         offset="0.82360202"
         id="stop2353" />
      <stop
         id="stop2355"
         offset="0.88243139"
         style="stop-color:#00b2aa;stop-opacity:1" />
      <stop
         id="stop2357"
         offset="1"
         style="stop-color:#007d77;stop-opacity:1" />
    </linearGradient>
    <linearGradient
       id="linearGradient1055"
       inkscape:collect="always">
      <stop
         id="stop1047"
         offset="0"
         style="stop-color:#28a3be;stop-opacity:1" />
      <stop
         style="stop-color:#6ccbe0;stop-opacity:1"
         offset="0.40000001"
         id="stop1049" />
      <stop
         id="stop1051"
         offset="0.60000002"
         style="stop-color:#6ccbe0;stop-opacity:1" />
      <stop
         id="stop1053"
         offset="1"
         style="stop-color:#28a3be;stop-opacity:1" />
    </linearGradient>
    <linearGradient
       inkscape:collect="always"
       id="linearGradient1013">
      <stop
         style="stop-color:#007d77;stop-opacity:1;"
         offset="0"
         id="stop1009" />
      <stop
         id="stop1019"
         offset="0.40000001"
         style="stop-color:#00b2aa;stop-opacity:1" />
      <stop
         style="stop-color:#00b2aa;stop-opacity:1"
         offset="0.60000002"
         id="stop1021" />
      <stop
         style="stop-color:#007d77;stop-opacity:1"
         offset="1"
         id="stop1011" />
    </linearGradient>
    <linearGradient
       inkscape:collect="always"
       id="linearGradient969">
      <stop
         style="stop-color:#aa0618;stop-opacity:1;"
         offset="0"
         id="stop965" />
      <stop
         id="stop975"
         offset="0.40000001"
         style="stop-color:#de081f;stop-opacity:1" />
      <stop
         style="stop-color:#de081f;stop-opacity:1"
         offset="0.60000002"
         id="stop977" />
      <stop
         style="stop-color:#aa0618;stop-opacity:1"
         offset="1"
         id="stop967" />
    </linearGradient>
    <linearGradient
       inkscape:collect="always"
       id="linearGradient935">
      <stop
         style="stop-color:#28a3be;stop-opacity:1"
         offset="0"
         id="stop931" />
      <stop
         id="stop943"
         offset="0.5"
         style="stop-color:#28a3be;stop-opacity:1" />
      <stop
         style="stop-color:#6ccbe0;stop-opacity:1"
         offset="0.69995928"
         id="stop945" />
      <stop
         id="stop947"
         offset="0.79982096"
         style="stop-color:#6ccbe0;stop-opacity:1" />
      <stop
         style="stop-color:#28a3be;stop-opacity:1"
         offset="1"
         id="stop933" />
    </linearGradient>
    <linearGradient
       gradientUnits="userSpaceOnUse"
       y2="72.224762"
       x2="114.07107"
       y1="63.739479"
       x1="105.58579"
       id="linearGradient1029-6"
       xlink:href="#linearGradient969"
       inkscape:collect="always"
       gradientTransform="translate(1.6601562e-6)" />
    <radialGradient
       r="51.500168"
       fy="68.000038"
       fx="48.995926"
       cy="68.000038"
       cx="48.995926"
       gradientTransform="matrix(-0.93186646,0,0,-0.93203656,94.653582,131.37857)"
       gradientUnits="userSpaceOnUse"
       id="radialGradient1039-1"
       xlink:href="#linearGradient2379"
       inkscape:collect="always" />
    <linearGradient
       gradientUnits="userSpaceOnUse"
       y2="36.162643"
       x2="110.53641"
       y1="27.677362"
       x1="102.05113"
       id="linearGradient958-0"
       xlink:href="#linearGradient1055"
       inkscape:collect="always"
       gradientTransform="translate(1.6601562e-6)" />
    <linearGradient
       gradientUnits="userSpaceOnUse"
       y2="53.134995"
       x2="113.36396"
       y1="44.649715"
       x1="104.87868"
       id="linearGradient987-3"
       xlink:href="#linearGradient1013"
       inkscape:collect="always"
       gradientTransform="translate(1.6601562e-6)" />
    <radialGradient
       r="17.071732"
       fy="67.998405"
       fx="48.999962"
       cy="67.998405"
       cx="48.999962"
       gradientTransform="matrix(-1.1713469,0,0,-1.1717807,106.39592,147.67688)"
       gradientUnits="userSpaceOnUse"
       id="radialGradient941-1"
       xlink:href="#linearGradient935"
       inkscape:collect="always" />
    <linearGradient
       y2="82.142998"
       x2="63.143002"
       y1="75.070999"
       x1="56.070999"
       gradientUnits="userSpaceOnUse"
       id="linearGradient1004-4"
       xlink:href="#linearGradient1055"
       inkscape:collect="always"
       gradientTransform="translate(1.6601562e-6)" />
    <linearGradient
       y2="92.041016"
       x2="73.041016"
       y1="84.971001"
       x1="65.971001"
       gradientUnits="userSpaceOnUse"
       id="linearGradient979-0"
       xlink:href="#linearGradient1013"
       inkscape:collect="always"
       gradientTransform="translate(1.6601562e-6)" />
    <linearGradient
       y2="101.941"
       x2="82.941406"
       y1="94.869141"
       x1="75.869003"
       gradientUnits="userSpaceOnUse"
       id="linearGradient1017-2"
       xlink:href="#linearGradient969"
       inkscape:collect="always"
       gradientTransform="translate(1.6601562e-6)" />
    <radialGradient
       inkscape:collect="always"
       xlink:href="#linearGradient2359"
       id="radialGradient2365"
       gradientUnits="userSpaceOnUse"
       gradientTransform="matrix(-1.1713882,0,0,-1.171564,106.39517,147.66403)"
       cx="48.998684"
       cy="67.998932"
       fx="48.998684"
       fy="67.998932"
       r="29.020893" />
  </defs>
  <style
     id="style847">.st0{opacity:0}.st0,.st1{fill:#2d2d30}.st2{fill:#c5c5c5}.st3{fill:#2b282e}</style>
  <style
     id="style914">.st0{opacity:0}.st0,.st1{fill:#f6f6f6}.st2{fill:#424242}.st3{fill:#f0eff1}</style>
  <path
     d=""
     id="path2899"
     style="fill:#000000" />
  <path
     d=""
     id="path2897"
     style="fill:#000000" />
  <path
     d=""
     id="path2895"
     style="fill:#000000" />
  <path
     d=""
     id="path2891"
     style="fill:#000000" />
  <path
     id="rect2893-7-3-33"
     style="opacity:0.998;fill:url(#linearGradient1029-6);fill-opacity:1.0;stroke-width:0.176295;stop-color:#000000"
     d="m 116.89949,56.66841 7.07107,-4.24264 1.41422,1.41422 -4.24265,7.07107 h -1.41421 l -4.79934,4.79934 0.5567,5.10015 -1.41421,1.41421 -4.24264,-1.41421 -2.12132,0.70711 L 107,70.81055 107.758,70.02241 107,70.81055 106.29289,70.10344 107,67.98212 105.58579,63.73948 107,62.32527 l 5.06126,0.5956 4.83823,-4.83824 z"
     sodipodi:nodetypes="cccccccccccccccccccc" />
  <path
     d="m 49.000002,20.00001 c -12.28427,0 -24.56882,4.68601 -33.94141,14.05859 -0.0577,0.0574 -0.11447,0.11614 -0.17187,0.17383 -18.5827103,18.77271 -18.5063203,49.03126 0.17187,67.70898 18.74517,18.74517 49.13765,18.74476 67.88281,-4.1e-4 l -7.0724,-7.07185 c -14.83993,14.83991 -38.89822,14.83991 -53.73814,0 C 7.3124517,80.0508 7.2863417,56.03436 22.074262,41.18555 c 0.0184,-0.0184 0.0382,-0.0363 0.0566,-0.0547 14.83992,-14.83992 38.89836,-14.83992 53.73828,0 l 7.07226,-7.07226 c -9.37258,-9.37257 -21.65713,-14.05858 -33.9414,-14.05858 z m -0.26367,14 c -8.92578,0.0698 -17.46611,3.64687 -23.77735,9.95898 -13.277,13.27768 -13.277,34.80435 0,48.08203 13.27769,13.277 34.80435,13.277 48.08203,0 l 0.002,0.002 L 104,61.08594 v -7.07226 h -7.072268 l -13.92773,13.92773 -16.88086,16.87891 -0.14844,0.15039 c -9.37261,9.37277 -24.56879,9.37277 -33.9414,0 -9.31546,-9.3146 -9.38171,-24.3969 -0.14844,-33.79297 0.0493,-0.0497 0.0987,-0.0992 0.14844,-0.14844 9.37261,-9.37277 24.56879,-9.37277 33.9414,0 l 7.07031,-7.07031 c -6.32036,-6.32109 -14.87579,-9.89889 -23.81445,-9.95898 -0.16341,-0.001 -0.32683,-0.001 -0.49023,0 z"
     style="opacity:0.998;fill:url(#radialGradient1039-1);fill-opacity:1;stroke-width:7.56641;stop-color:#000000"
     id="path1503-8-51"
     sodipodi:nodetypes="sccccccccccscccccccccccccccccc" />
  <path
     id="rect2893-9"
     style="opacity:0.998;fill:url(#linearGradient958-0);fill-opacity:1;stroke-width:0.176295;stop-color:#000000"
     d="m 118.31459,11.41391 4.24264,1.41421 -13.43503,13.43503 2.82843,-1.41421 1.41421,1.41421 -1.41421,2.82843 13.43503,-13.43503 1.41421,4.24264 -2.82842,2.82843 -3.53554,2.12132 -3.53553,3.53553 -1.41422,2.82843 -4.94975,4.94975 -0.7071,-3.53554 -2.12132,-0.70711 -0.7071,-0.7071 0.45824,-0.49003 -0.45824,0.49003 -0.70711,-0.70711 -0.70711,-2.12132 -3.53554,-0.7071 4.94975,-4.94975 2.82843,-1.41422 3.53553,-3.53553 2.12132,-3.53554 z"
     sodipodi:nodetypes="cccccccccccccccccccccccccc" />
  <path
     id="path1503-7"
     style="opacity:0.998;fill:url(#radialGradient2365);fill-opacity:1;stroke-width:7.56641;stop-color:#000000"
     d="m 48.736332,34 c -8.92578,0.0698 -17.46611,3.64688 -23.77735,9.95899 -13.277,13.27768 -13.277,34.80434 0,48.08203 13.27769,13.277 34.80435,13.277 48.08203,0 l 0.002,0.002 -7.07231,-7.072 c -9.37261,9.37277 -24.56879,9.37247 -33.9414,-3e-4 -9.31546,-9.31459 -9.38171,-24.39689 -0.14844,-33.79297 0.0493,-0.0497 0.0987,-0.0992 0.14844,-0.14843 9.37261,-9.37277 24.56879,-9.37277 33.9414,0 L 73.041012,43.959 C 66.720652,37.63789 58.165222,34.06009 49.226562,34 c -0.16341,-10e-4 -0.32683,-10e-4 -0.49023,0 z"
     sodipodi:nodetypes="ccccccccccccc" />
  <path
     id="rect2893-7-8"
     style="opacity:0.998;fill:url(#linearGradient987-3);fill-opacity:1.0;stroke-width:0.176295;stop-color:#000000"
     d="m 104.87868,44.64972 4.94975,-0.70711 9.19239,-7.77817 3.53553,-2.12132 1.41421,1.41421 -2.12132,3.53553 -7.77817,9.19239 -0.70711,4.94975 -4.94975,2.12132 -0.7071,-3.53553 L 107,51.01368 108.1016,49.6648 107,51.01368 l -0.70711,-0.70711 -3.53553,-0.7071 z"
     sodipodi:nodetypes="cccccccccccccccc" />
  <path
     d="m 56.084902,75.05665 -0.0137,0.0137 c -3.90507,3.90423 -10.23556,3.90423 -14.14063,0 -3.89891,-3.89973 -3.90503,-10.21969 -0.0137,-14.12696 l 0.0137,-0.0137 c 3.90507,-3.90423 10.23556,-3.90423 14.14063,0 l 7.07226,-7.07226 c -3.77194,-3.77181 -8.89433,-5.88053 -14.22852,-5.85742 -5.27462,0.0225 -10.32681,2.12773 -14.05664,5.85742 -7.81107,7.81058 -7.81107,20.47457 0,28.28515 7.81059,7.81108 20.47457,7.81108 28.28516,0 z"
     style="opacity:0.998;fill:url(#radialGradient941-1);fill-opacity:1;stroke-width:7.56641;stop-color:#000000"
     id="path1503-4-34"
     sodipodi:nodetypes="ccccsccccccc" />
  <path
     sodipodi:nodetypes="cccccccc"
     d="m 56.071002,75.071 40.85765,-40.8581 h 7.072238 v 7.07226 L 63.143002,82.143 l -1.54771,0.30166 -5.86469,-6.47662 z"
     style="opacity:0.998;fill:url(#linearGradient1004-4);fill-opacity:1;stroke-width:0.833349;stop-color:#000000"
     id="rect896-94" />
  <path
     sodipodi:nodetypes="cccccccc"
     d="M 96.927732,54.01368 H 104 v 7.07226 l -30.956988,30.95708 -1.62474,1.06682 -6.81068,-6.23894 1.36341,-1.8999 z"
     style="opacity:0.998;fill:url(#linearGradient979-0);fill-opacity:1.0;stroke-width:0.999999;stop-color:#000000"
     id="rect960-1" />
  <path
     sodipodi:nodetypes="cccccccc"
     d="M 96.927732,73.81055 H 104 v 7.07227 l -21.058998,21.05818 -1.78896,0.5037 -5.99579,-5.78845 0.71275,-1.78725 z"
     style="opacity:0.998;fill:url(#linearGradient1017-2);fill-opacity:1.0;stroke-width:0.610101;stop-color:#000000"
     id="rect1006-9" />
</svg>
