<?xml version="1.0" encoding="UTF-8" standalone="no"?>
<svg
   xmlns:dc="http://purl.org/dc/elements/1.1/"
   xmlns:cc="http://creativecommons.org/ns#"
   xmlns:rdf="http://www.w3.org/1999/02/22-rdf-syntax-ns#"
   xmlns:svg="http://www.w3.org/2000/svg"
   xmlns="http://www.w3.org/2000/svg"
   xmlns:sodipodi="http://sodipodi.sourceforge.net/DTD/sodipodi-0.dtd"
   xmlns:inkscape="http://www.inkscape.org/namespaces/inkscape"
   inkscape:version="1.0 (4035a4fb49, 2020-05-01)"
   sodipodi:docname="dark_audio.svg"
   id="svg26"
   version="1.1"
   viewBox="0 0 3.7041668 4.23334"
   height="16.000025"
   width="14.000001">
  <defs
     id="defs20" />
  <sodipodi:namedview
     fit-margin-bottom="0"
     fit-margin-right="0"
     fit-margin-left="0"
     fit-margin-top="0"
     inkscape:window-maximized="0"
     inkscape:window-y="55"
     inkscape:window-x="1766"
     inkscape:window-height="900"
     inkscape:window-width="1261"
     units="px"
     showgrid="false"
     inkscape:document-rotation="0"
     inkscape:current-layer="layer1"
     inkscape:document-units="px"
     inkscape:cy="1.6104365"
     inkscape:cx="15.821028"
     inkscape:zoom="8.9728735"
     inkscape:pageshadow="2"
     inkscape:pageopacity="0"
     borderopacity="1.0"
     bordercolor="#666666"
     pagecolor="#ffffff"
     id="base" />
  <metadata
     id="metadata23">
    <rdf:RDF>
      <cc:Work
         rdf:about="">
        <dc:format>image/svg+xml</dc:format>
        <dc:type
           rdf:resource="http://purl.org/dc/dcmitype/StillImage" />
        <dc:title></dc:title>
      </cc:Work>
    </rdf:RDF>
  </metadata>
  <g
     transform="translate(-31.173383,-194.14896)"
     id="layer1"
     inkscape:groupmode="layer"
     inkscape:label="Layer 1">
    <path
       d="m 32.760883,194.14896 -0.529167,0.79375 -0.529166,0.52917 -0.529167,0.26458 v 0.52917 0.52916 l 0.529167,0.26459 0.529166,0.52916 0.529167,0.79375 c 0.146125,0 0.264583,-0.47383 0.264583,-1.05833 l -0.264583,-0.52917 c 0.146125,0 0.264583,-0.23691 0.264583,-0.52916 0,-0.29225 -0.118458,-0.52917 -0.264583,-0.52917 l 0.264583,-0.52917 c 0,-0.58451 -0.118458,-1.05833 -0.264583,-1.05833 z"
       style="opacity:0.998;fill:#161616;fill-opacity:1;stroke-width:0.0741045;stop-color:#000000"
       id="rect5126" />
    <path
       id="rect5164"
       style="opacity:0.998;fill:#161616;fill-opacity:1;stroke-width:0.22128;stop-color:#000000"
       d="m 33.29005,195.47188 h 0.264583 c 0,0 0.264583,0.51485 0.264583,0.79375 0,0.27889 -0.264583,0.79375 -0.264583,0.79375 H 33.29005 c 0,0 0.264583,-0.51486 0.264583,-0.79375 0,-0.2789 -0.264583,-0.79375 -0.264583,-0.79375 z"
       sodipodi:nodetypes="cczcczc" />
    <path
       id="rect5164-2"
       style="opacity:0.998;fill:#161616;fill-opacity:1;stroke-width:0.285671;stop-color:#000000"
       d="M 33.819216,194.94271 H 34.0838 c 0,0 0.264583,0.87321 0.264583,1.32292 0,0.4497 -0.264583,1.32292 -0.264583,1.32292 h -0.264584 c 0,0 0.264584,-0.87322 0.264584,-1.32292 0,-0.44971 -0.264584,-1.32292 -0.264584,-1.32292 z"
       sodipodi:nodetypes="cczcczc" />
    <path
       id="rect5164-1"
       style="opacity:0.998;fill:#161616;fill-opacity:1;stroke-width:0.33801;stop-color:#000000"
       d="m 34.348383,194.41355 h 0.264583 c 0,0 0.264584,1.22845 0.264584,1.85208 0,0.62363 -0.264584,1.85208 -0.264584,1.85208 h -0.264583 c 0,0 0.264583,-1.22845 0.264583,-1.85208 0,-0.62363 -0.264583,-1.85208 -0.264583,-1.85208 z"
       sodipodi:nodetypes="cczcczc" />
    <path
       sodipodi:nodetypes="cczcccscc"
       d="m 32.760883,194.14896 -0.132292,0.26459 c 0,0 -0.264583,1.22845 -0.264583,1.85208 0,0.62363 0.264583,1.85208 0.264583,1.85208 l 0.132292,0.26459 v -0.95677 c -0.06615,-0.38507 -0.132292,-0.84809 -0.132292,-1.1599 0,-0.31182 0.06615,-0.77484 0.132292,-1.1599 z"
       style="opacity:0.998;fill:#969696;fill-opacity:1;stroke-width:0.33801;stop-color:#000000"
       id="rect5164-1-4" />
  </g>
</svg>
