<?xml version="1.0" encoding="UTF-8" standalone="no"?>
<svg
   xmlns:dc="http://purl.org/dc/elements/1.1/"
   xmlns:cc="http://creativecommons.org/ns#"
   xmlns:rdf="http://www.w3.org/1999/02/22-rdf-syntax-ns#"
   xmlns:svg="http://www.w3.org/2000/svg"
   xmlns="http://www.w3.org/2000/svg"
   width="15.999999"
   height="15.999999"
   viewBox="0 0 4.2333329 4.2333332"
   version="1.1"
   id="svg26">
  <defs
     id="defs20" />
  <metadata
     id="metadata23">
    <rdf:RDF>
      <cc:Work
         rdf:about="">
        <dc:format>image/svg+xml</dc:format>
        <dc:type
           rdf:resource="http://purl.org/dc/dcmitype/StillImage" />
        <dc:title></dc:title>
      </cc:Work>
    </rdf:RDF>
  </metadata>
  <g
     id="layer1"
     transform="translate(-31.173384,-194.14896)">
    <path
       transform="matrix(0.26458333,0,0,0.26458333,31.173384,194.14896)"
       d="M 7.5 3 L 7.5 4.0292969 C 6.5683755 4.0788204 5.6407367 4.2520712 4.7402344 4.578125 L 4.3574219 3.6542969 L 3.4335938 4.0371094 L 3.8183594 4.9667969 C 2.9899336 5.3639384 2.1984003 5.8944898 1.4511719 6.5371094 L 0.79296875 5.8789062 L 0.0859375 6.5859375 L 0.71679688 7.2167969 C 0.47210318 7.4660084 0.23052743 7.7217633 0 8 C 4.4182904 13.332724 11.581728 13.332724 16 8 C 15.769474 7.7217633 15.527896 7.4660084 15.283203 7.2167969 L 15.914062 6.5859375 L 15.207031 5.8789062 L 14.548828 6.5371094 C 13.783154 5.8786256 12.969575 5.3421416 12.119141 4.9414062 L 12.503906 4.015625 L 11.580078 3.6328125 L 11.197266 4.5566406 C 10.316256 4.2442883 9.4102138 4.0776823 8.5 4.0292969 L 8.5 3 L 7.5 3 z M 8 5 C 10.055483 5 12.11137 5.7643199 13.794922 7.2910156 L 13.792969 7.2929688 L 14.5 8 L 14.853516 8.3535156 L 14.5 8.7070312 L 14.148438 8.3554688 C 10.657428 11.866159 5.3425798 11.866159 1.8515625 8.3554688 L 1.5 8.7070312 L 1.1464844 8.3535156 L 1.5 8 L 2.2070312 7.2929688 L 2.2050781 7.2910156 C 3.8886338 5.7643199 5.9445134 5 8 5 z M 7.9316406 5.25 C 7.225897 5.2688976 6.553861 5.5553741 6.0546875 6.0546875 C 6.234971 5.8740261 6.4774096 5.7692778 6.7324219 5.7617188 C 7.0077227 5.7541597 7.274127 5.8596639 7.46875 6.0546875 C 7.8591714 6.4451883 7.8591714 7.0782492 7.46875 7.46875 C 7.0782417 7.8591752 6.4451958 7.8591752 6.0546875 7.46875 C 5.6642661 7.0782492 5.6642661 6.4451883 6.0546875 6.0546875 C 4.9797218 7.1287914 4.9797218 8.8712086 6.0546875 9.9453125 C 7.1288066 11.020286 8.8711934 11.020286 9.9453125 9.9453125 C 11.020278 8.8712086 11.020278 7.1287914 9.9453125 6.0546875 C 9.412641 5.5219631 8.6847493 5.2311024 7.9316406 5.25 z "
       style="opacity:0.998;fill:#626262;fill-opacity:1;stroke-width:0.972533;stop-color:#000000"
       id="path881-8" />
  </g>
</svg>
