<?xml version="1.0" encoding="UTF-8" standalone="no"?>
<svg
   xmlns:dc="http://purl.org/dc/elements/1.1/"
   xmlns:cc="http://creativecommons.org/ns#"
   xmlns:rdf="http://www.w3.org/1999/02/22-rdf-syntax-ns#"
   xmlns:svg="http://www.w3.org/2000/svg"
   xmlns="http://www.w3.org/2000/svg"
   width="15.999999"
   height="15.999999"
   viewBox="0 0 4.2333329 4.2333332"
   version="1.1"
   id="svg26">
  <defs
     id="defs20" />
  <metadata
     id="metadata23">
    <rdf:RDF>
      <cc:Work
         rdf:about="">
        <dc:format>image/svg+xml</dc:format>
        <dc:type
           rdf:resource="http://purl.org/dc/dcmitype/StillImage" />
        <dc:title></dc:title>
      </cc:Work>
    </rdf:RDF>
  </metadata>
  <g
     id="layer1"
     transform="translate(-31.173384,-194.14896)">
    <path
       d="m 31.363041,196.05848 c -0.06474,0.0659 -0.128659,0.13361 -0.189653,0.20723 0.06099,0.0736 0.124911,0.14128 0.189653,0.20722 l -0.166915,0.16691 0.187069,0.18707 0.174149,-0.17415 c 0.197704,0.17003 0.407131,0.3104 0.626318,0.41548 l -0.101802,0.24598 0.24443,0.10129 0.101285,-0.24443 c 0.238258,0.0863 0.483696,0.13211 0.730188,0.14521 v 0.27233 h 0.264584 v -0.27233 c 0.240827,-0.0128 0.480551,-0.0569 0.713651,-0.13953 l 0.101286,0.24443 0.244429,-0.10128 -0.101802,-0.24495 c 0.225011,-0.10603 0.44027,-0.24797 0.642855,-0.4222 l 0.174149,0.17415 0.187069,-0.18707 -0.166915,-0.16691 c 0.06474,-0.0659 0.128659,-0.13361 0.189653,-0.20722 -0.06099,-0.0736 -0.124911,-0.14129 -0.189653,-0.20723 l -0.207222,0.20723 -0.187069,0.18707 5.3e-4,5.1e-4 c -0.445442,0.40394 -0.989394,0.60617 -1.533242,0.60617 -0.543846,0 -1.087797,-0.20223 -1.53324,-0.60617 l 5.29e-4,-5.1e-4 -0.18708,-0.18707 z"
       style="opacity:0.998;fill:#626262;fill-opacity:1;stroke-width:0.978466;stop-color:#000000"
       id="path846-4-4-6" />
  </g>
</svg>
